#  ==========================================================================
#  
#  Wavefront OBJ format exported by Red-i Productions' "Riptide Pro"
#     (a commercial plugin for Cinema 4D PC & Mac, R9.6 or later)
#  
#  Red-i Productions
#  http://skinprops.com
#  
#  ==========================================================================
mtllib pyramid-down.mtl
v -3.94401 5.02395 3.98446
v 3.98446 5.02395 3.94401
v 0 5.07793 -0
v 3.94401 5.02395 -3.98446
v -3.98446 5.02395 -3.94401
v 1.8234 2.16679 1.80489
v -1.80489 2.16679 1.8234
v 0 0.0287666 -0
v 1.80489 2.16679 -1.8234
v -1.8234 2.16679 -1.80489
v 3.63777 4.18792 3.60083
v 4.37163 5.04841 4.32725
v -4.32725 5.04841 4.37163
v -3.60084 4.18792 3.63777
v 3.60084 4.18792 -3.63777
v 4.32725 5.04841 -4.37163
v -3.63777 4.18792 -3.60084
v -4.37163 5.04841 -4.32725
v 1.59328 2.22018 1.5771
v 3.25061 4.16347 3.21761
v -3.2176 4.16347 3.2506
v -1.5771 2.22018 1.59328
v 1.5771 2.22018 -1.59328
v 3.21761 4.16347 -3.25061
v -1.59328 2.22018 -1.5771
v -3.25061 4.16347 -3.21761
# 26 vertices

vt 0.18622 0.82602
vt 0.32132 0.69333
vt 0.05353 0.69092
vt 0.31891 0.96113
vt 0.05111 0.95871
vt 0.67477 0.68064
vt 0.75732 0.57528
vt 0.61341 0.56204
vt 0.56240 0.75793
vt 0.69845 0.81513
vt 0.80680 0.71158
vt 0.79203 0.46192
vt 0.81730 0.41701
vt 0.48514 0.44540
vt 0.51671 0.48611
vt 0.46121 0.82540
vt 0.41915 0.85715
vt 0.73957 0.97406
vt 0.72660 0.92294
vt 0.96787 0.71692
vt 0.91594 0.70991
vt 0.29339 0.36373
vt 0.29200 0.50946
vt 0.55433 0.34327
vt 0.42198 0.28227
vt 0.51025 0.03587
vt 0.40037 0.13160
vt 0.19087 0.12960
vt 0.08284 0.03178
vt 0.03289 0.33829
vt 0.16639 0.27983
vt 0.62454 0.55348
vt 0.75881 0.57274
vt 0.69732 0.81996
vt 0.56811 0.77105
vt 0.81190 0.70911
vt 0.78192 0.47989
vt 0.53272 0.49976
vt 0.33445 0.68044
vt 0.04063 0.67779
vt 0.48068 0.81620
vt 0.72151 0.90250
vt 0.33180 0.97426
vt 0.89522 0.70684
vt 0.03798 0.97161
# 45 texture coordinates

vn 6.78248e-05 0.999907 0.0136454
vn 0.0136454 0.999907 -6.78248e-05
vn -6.78248e-05 0.999907 -0.0136454
vn -0.0136454 0.999907 6.78248e-05
vn 0.00390569 -0.646994 0.762485
vn 0.762485 -0.646994 -0.00390569
vn -0.00390569 -0.646994 -0.762485
vn -0.762485 -0.646994 0.00390569
vn 0.00115082 0.973882 0.22705
vn 0.22705 0.973882 -0.00115082
vn -0.00115082 0.973882 -0.22705
vn -0.22705 0.973882 0.00115082
vn 0.000272064 -0.997993 0.0633312
vn -0.000272064 0.997993 -0.0633312
vn 0.0633312 -0.997993 -0.000272064
vn -0.0633312 0.997993 0.000272064
vn -0.000272064 -0.997993 -0.0633312
vn 0.000272064 0.997993 0.0633312
vn -0.0633312 -0.997993 0.000272064
vn 0.0633312 0.997993 -0.000272064
# 20 vertex normals

usemtl None
f 1/3/1 2/2/1 3/1/1
f 2/2/2 4/4/2 3/1/2
f 4/4/3 5/5/3 3/1/3
f 5/5/4 1/3/4 3/1/4
f 6/8/5 7/7/5 8/6/5
f 9/10/6 6/9/6 8/6/6
f 10/11/7 9/10/7 8/6/7
f 7/7/8 10/11/8 8/6/8
f 11/15/5 12/14/5 13/13/5 14/12/5
f 15/19/6 16/18/6 12/17/6 11/16/6
f 17/21/7 18/20/7 16/18/7 15/19/7
f 14/12/8 13/13/8 18/20/8 17/21/8
f 19/25/5 20/24/5 21/23/5 22/22/5
f 23/27/6 24/26/6 20/24/6 19/25/6
f 25/31/7 26/30/7 24/29/7 23/28/7
f 22/22/8 21/23/8 26/30/8 25/31/8
f 22/33/9 7/7/9 6/8/9 19/32/9
f 19/35/10 6/9/10 9/10/10 23/34/10
f 23/34/11 9/10/11 10/11/11 25/36/11
f 25/36/12 10/11/12 7/7/12 22/33/12
f 20/38/13 11/15/13 14/12/13 21/37/13
f 1/3/14 13/40/14 12/39/14 2/2/14
f 24/42/15 15/19/15 11/16/15 20/41/15
f 2/2/16 12/39/16 16/43/16 4/4/16
f 26/44/17 17/21/17 15/19/17 24/42/17
f 4/4/18 16/43/18 18/45/18 5/5/18
f 21/37/19 14/12/19 17/21/19 26/44/19
f 5/5/20 18/45/20 13/40/20 1/3/20
# 28 facets

