<svg xmlns="http://www.w3.org/2000/svg" style="display: none;">
  
    <symbol id="icon-volume-up" viewBox="0 0 512 512">
      <path d="m238 101l0 310c0 5-2 10-6 13-3 4-8 6-13 6-5 0-9-2-12-6l-96-95-74 0c-5 0-10-2-13-5-4-4-6-8-6-13l0-110c0-5 2-9 6-13 3-3 8-5 13-5l74 0 96-95c3-4 7-6 12-6 5 0 10 2 13 6 4 3 6 8 6 13z m109 155c0 14-4 28-12 40-8 13-19 22-32 27-2 1-4 2-7 2-5 0-9-2-13-6-3-3-5-8-5-13 0-4 1-7 3-10 2-3 5-5 8-7 4-2 7-4 10-7 3-2 6-5 8-10 3-4 4-10 4-16 0-6-1-12-4-16-2-5-5-8-8-10-3-3-6-5-10-7-3-2-6-4-8-7-2-3-3-6-3-10 0-5 2-10 5-13 4-4 8-6 13-6 3 0 5 1 7 2 13 5 24 14 32 26 8 13 12 27 12 41z m74 0c0 29-9 56-25 81-16 24-37 42-64 54-2 1-5 1-7 1-5 0-10-2-13-5-4-4-6-8-6-13 0-8 4-13 11-17 11-6 18-10 22-13 14-10 25-23 33-38 8-16 12-32 12-50 0-18-4-34-12-50-8-15-19-28-33-38-4-3-11-7-22-13-7-4-11-9-11-17 0-5 2-9 6-13 3-3 8-5 13-5 2 0 5 0 7 1 27 12 48 30 64 54 16 25 25 52 25 81z m73 0c0 44-12 84-37 121-24 36-56 63-96 81-3 1-5 1-8 1-5 0-9-2-12-5-4-4-6-8-6-13 0-7 4-13 11-17 2-1 4-2 7-3 3-1 5-2 6-3 9-5 17-10 24-15 23-17 41-39 54-64 14-26 20-54 20-83 0-29-6-57-20-83-13-25-31-47-54-64-7-5-15-10-24-15-1-1-3-2-6-3-3-1-5-2-7-3-7-4-11-10-11-17 0-5 2-9 6-13 3-3 7-5 12-5 3 0 5 0 8 1 40 18 72 45 96 81 25 37 37 77 37 121z"/>
    </symbol>
  
    <symbol id="icon-volume-off" viewBox="0 0 512 512">
      <path d="m366 101l0 310c0 5-2 10-6 13-3 4-8 6-13 6-5 0-9-2-12-6l-96-95-74 0c-5 0-10-2-13-5-4-4-6-8-6-13l0-110c0-5 2-9 6-13 3-3 8-5 13-5l74 0 96-95c3-4 7-6 12-6 5 0 10 2 13 6 4 3 6 8 6 13z"/>
    </symbol>
  
    <symbol id="icon-question-circle" viewBox="0 0 512 512">
      <path d="m293 393l0-55c0-2-1-5-3-6-2-2-4-3-7-3l-54 0c-3 0-5 1-7 3-2 1-3 4-3 6l0 55c0 3 1 5 3 7 2 1 4 2 7 2l54 0c3 0 5-1 7-2 2-2 3-4 3-7z m73-192c0-17-6-32-16-46-11-15-24-26-40-34-16-7-32-11-48-11-47 0-82 20-106 61-3 4-2 8 2 12l38 28c1 1 3 2 5 2 3 0 6-1 7-4 10-13 19-21 25-26 6-4 15-7 24-7 10 0 18 3 25 8 7 5 11 10 11 17 0 7-2 13-6 17-4 4-10 9-20 13-12 5-23 13-33 25-10 11-15 23-15 35l0 11c0 2 1 5 3 6 2 2 4 3 7 3l54 0c3 0 5-1 7-3 2-1 3-4 3-6 0-4 2-9 6-14 4-6 9-11 15-15 6-3 11-6 14-8 4-2 8-5 13-10 6-4 10-9 13-13 3-5 6-11 8-18 3-7 4-14 4-23z m109 55c0 40-9 77-29 110-20 34-46 60-80 80-33 20-70 29-110 29-40 0-77-9-110-29-34-20-60-46-80-80-20-33-29-70-29-110 0-40 9-77 29-110 20-34 46-60 80-80 33-20 70-29 110-29 40 0 77 9 110 29 34 20 60 46 80 80 20 33 29 70 29 110z"/>
    </symbol>
  
    <symbol id="icon-twitter" viewBox="0 0 512 512">
      <path d="m481 117c-13 18-28 34-46 47 0 3 0 7 0 12 0 25-3 50-11 74-7 25-18 49-33 71-14 23-32 43-52 61-21 17-45 31-74 41-29 11-60 16-92 16-52 0-99-14-142-42 7 1 14 2 22 2 43 0 81-14 115-40-20 0-38-6-54-18-16-12-27-27-33-46 7 1 13 2 18 2 8 0 16-1 24-4-21-4-39-15-53-31-14-17-21-37-21-59l0-1c13 7 27 11 42 11-13-8-23-19-30-32-8-14-11-29-11-44 0-17 4-33 12-47 23 28 51 51 84 68 33 17 69 27 107 29-2-8-3-15-3-22 0-25 9-47 27-65 18-18 40-27 66-27 26 0 49 10 67 29 21-4 40-11 59-22-7 22-21 39-41 51 18-2 35-7 53-14z"/>
    </symbol>
  
    <symbol id="icon-headphones" viewBox="0 0 512 512">
      <path d="m494 253c0 32-6 62-17 90l-6 14-53 9c-4 16-13 29-26 39-13 10-28 16-45 16l0 9c0 2 0 5-2 6-2 2-4 3-7 3l-18 0c-3 0-5-1-7-3-1-1-2-4-2-6l0-165c0-3 1-5 2-6 2-2 4-3 7-3l18 0c3 0 5 1 7 3 2 1 2 3 2 6l0 9c14 0 26 4 38 10 11 7 20 16 26 28l20-4c5-18 8-36 8-55 0-28-9-55-25-80-17-25-40-44-68-59-28-15-58-23-90-23-32 0-62 8-90 23-28 15-51 34-68 59-16 25-25 52-25 80 0 19 3 37 8 55l20 4c6-12 15-21 26-28 12-6 24-10 38-10l0-9c0-3 0-5 2-6 2-2 4-3 7-3l18 0c3 0 5 1 7 3 1 1 2 3 2 6l0 165c0 2-1 5-2 6-2 2-4 3-7 3l-18 0c-3 0-5-1-7-3-2-1-2-4-2-6l0-9c-17 0-32-6-45-16-13-10-22-23-26-39l-53-9-6-14c-11-28-17-58-17-90 0-29 7-56 19-83 13-27 30-50 52-69 21-20 46-35 76-47 29-12 59-17 91-17 32 0 62 5 91 17 30 12 55 27 76 47 22 19 39 42 52 69 12 27 19 54 19 83z"/>
    </symbol>
  
    <symbol id="icon-exclamation-triangle" viewBox="0 0 512 512">
      <path d="m293 393l0-54c0-3-1-5-3-7-2-2-4-3-7-3l-54 0c-3 0-5 1-7 3-2 2-3 4-3 7l0 54c0 3 1 5 3 7 2 1 4 2 7 2l54 0c3 0 5-1 7-2 2-2 3-4 3-7z m-1-107l5-131c0-2-1-4-3-6-2-2-4-3-7-3l-62 0c-3 0-5 1-7 3-2 2-3 4-3 6l5 131c0 2 1 3 3 5 1 1 4 2 6 2l53 0c3 0 5-1 7-2 2-2 3-3 3-5z m-4-267l219 402c7 12 7 24 0 36-3 6-8 10-13 14-6 3-12 4-19 4l-438 0c-7 0-13-1-19-4-5-4-10-8-13-14-7-12-7-24 0-36l219-402c3-6 8-10 13-14 6-3 12-5 19-5 7 0 13 2 19 5 5 4 10 8 13 14z"/>
    </symbol>
  
</svg>
