<?xml version="1.0" encoding="UTF-8"?>
<svg width="28px" height="22px" viewBox="0 0 28 22" version="1.1" xmlns="http://www.w3.org/2000/svg" xmlns:xlink="http://www.w3.org/1999/xlink">
    <!-- Generator: Sketch 53 (72520) - https://sketchapp.com -->
    <title>iconmonstr-twitter-2</title>
    <desc>Created with Sketch.</desc>
    <g id="Page-1" stroke="none" stroke-width="1" fill="none" fill-rule="evenodd">
        <g id="iconmonstr-twitter-2" fill="#0084B4" fill-rule="nonzero">
            <path d="M8.88666667,21.67 C5.79666667,21.67 2.92166667,20.765 0.5,19.2116667 C3.40333333,19.5533333 6.3,18.7483333 8.6,16.9466667 C6.205,16.9016667 4.185,15.32 3.49,13.1466667 C4.34833333,13.31 5.19166667,13.2616667 5.96,13.0533333 C3.32833333,12.525 1.51333333,10.155 1.57166667,7.62 C2.30833333,8.03 3.15333333,8.27666667 4.04833333,8.305 C1.61333333,6.67666667 0.923333333,3.46 2.355,1 C5.05333333,4.31 9.085,6.48833333 13.6316667,6.71666667 C12.8333333,3.295 15.43,1.77635684e-15 18.9616667,1.77635684e-15 C20.535,1.77635684e-15 21.9566667,0.663333333 22.955,1.72833333 C24.2016667,1.48333333 25.3733333,1.02833333 26.43,0.401666667 C26.0216667,1.68 25.1533333,2.75166667 24.025,3.42833333 C25.1316667,3.295 26.1866667,3.00166667 27.1666667,2.56666667 C26.4333333,3.66 25.505,4.62333333 24.4366667,5.395 C24.7833333,13.09 19.045,21.67 8.88666667,21.67 Z" id="Path"></path>
        </g>
    </g>
</svg>